<svg id="visual" viewBox="0 0 960 540" width="960" height="540" xmlns="http://www.w3.org/2000/svg" xmlns:xlink="http://www.w3.org/1999/xlink" version="1.1"><path d="M0 427L22.8 417.2C45.7 407.3 91.3 387.7 137 400.2C182.7 412.7 228.3 457.3 274 465.8C319.7 474.3 365.3 446.7 411.2 445.5C457 444.3 503 469.7 548.8 463.5C594.7 457.3 640.3 419.7 686 419.8C731.7 420 777.3 458 823 465.8C868.7 473.7 914.3 451.3 937.2 440.2L960 429L960 541L937.2 541C914.3 541 868.7 541 823 541C777.3 541 731.7 541 686 541C640.3 541 594.7 541 548.8 541C503 541 457 541 411.2 541C365.3 541 319.7 541 274 541C228.3 541 182.7 541 137 541C91.3 541 45.7 541 22.8 541L0 541Z" fill="#3d405b" stroke-linecap="round" stroke-linejoin="miter"></path></svg>